<?xml version="1.0" encoding="iso-8859-1"?>
<!-- Uploaded to: SVG Repo, www.svgrepo.com, Generator: SVG Repo Mixer Tools -->
<svg version="1.1" id="Capa_1" xmlns="http://www.w3.org/2000/svg" xmlns:xlink="http://www.w3.org/1999/xlink" 
	 viewBox="0 0 446.02 446.02" xml:space="preserve">
<g>
	<g id="XMLID_28_">
		<g>
			<path d="M372.655,29.56v386.9c0,16.3-13.26,29.56-29.56,29.56h-240.17c-16.3,0-29.56-13.26-29.56-29.56V29.55
				c0-16.29,13.26-29.55,29.56-29.55h240.17C359.395,0,372.655,13.26,372.655,29.56z M363.655,416.46v-33.44h-17v33.44
				c0,7.98-3.19,15.23-8.35,20.56h4.79C354.435,437.02,363.655,427.79,363.655,416.46z M363.655,374.02v-15h-17v15H363.655z
				 M363.655,350.02v-264h-17v264H363.655z M363.655,77.02v-15h-17v15H363.655z M363.655,53.02V29.56
				c0-11.34-9.22-20.56-20.56-20.56h-4.79c5.16,5.32,8.35,12.57,8.35,20.55v23.47H363.655z M337.655,416.46V29.55
				c0-11.33-9.22-20.55-20.56-20.55h-214.17c-11.34,0-20.56,9.22-20.56,20.55v386.91c0,11.34,9.22,20.56,20.56,20.56h214.17
				C328.435,437.02,337.655,427.8,337.655,416.46z"/>
			<path style="fill:#3B75A8;" d="M363.655,383.02v33.44c0,11.33-9.22,20.56-20.56,20.56h-4.79c5.16-5.33,8.35-12.58,8.35-20.56
				v-33.44H363.655z"/>
			<rect x="346.655" y="359.02" style="fill:#3B75A8;" width="17" height="15"/>
			<rect x="346.655" y="86.02" style="fill:#3B75A8;" width="17" height="264"/>
			<rect x="346.655" y="62.02" style="fill:#3B75A8;" width="17" height="15"/>
			<path style="fill:#3B75A8;" d="M363.655,29.56v23.46h-17V29.55c0-7.98-3.19-15.23-8.35-20.55h4.79
				C354.435,9,363.655,18.22,363.655,29.56z"/>
			<path style="fill:#4489D3;" d="M337.655,29.55v386.91c0,11.34-9.22,20.56-20.56,20.56h-214.17c-11.34,0-20.56-9.22-20.56-20.56
				V29.55c0-11.33,9.22-20.55,20.56-20.55h214.17C328.435,9,337.655,18.22,337.655,29.55z M320.515,402v-63.33
				c0-6.63-5.4-12.02-12.03-12.02h-23.04c-6.63,0-12.02,5.39-12.02,12.02V402c0,6.62,5.39,12.02,12.02,12.02h23.04
				C315.115,414.02,320.515,408.62,320.515,402z M320.515,299.88v-12.27c0-6.63-5.4-12.02-12.03-12.02h-23.04
				c-6.63,0-12.02,5.39-12.02,12.02v12.27c0,6.63,5.39,12.02,12.02,12.02h23.04C315.115,311.9,320.515,306.51,320.515,299.88z
				 M320.515,248.83v-12.27c0-6.63-5.4-12.02-12.03-12.02h-23.04c-6.63,0-12.02,5.39-12.02,12.02v12.27
				c0,6.63,5.39,12.02,12.02,12.02h23.04C315.115,260.85,320.515,255.46,320.515,248.83z M320.515,197.77V185.5
				c0-6.63-5.4-12.02-12.03-12.02h-23.04c-6.63,0-12.02,5.39-12.02,12.02v12.27c0,6.63,5.39,12.02,12.02,12.02h23.04
				C315.115,209.79,320.515,204.4,320.515,197.77z M320.515,139.87V91.16c0-8.9-7.25-16.14-16.15-16.14h-188.71
				c-8.9,0-16.14,7.24-16.14,16.14v48.71c0,8.9,7.24,16.15,16.14,16.15h188.71C313.265,156.02,320.515,148.77,320.515,139.87z
				 M262.535,402v-12.28c0-6.62-5.39-12.02-12.02-12.02h-23.04c-6.63,0-12.02,5.4-12.02,12.02V402c0,6.62,5.39,12.02,12.02,12.02
				h23.04C257.145,414.02,262.535,408.62,262.535,402z M262.535,350.94v-12.27c0-6.63-5.39-12.02-12.02-12.02h-23.04
				c-6.63,0-12.02,5.39-12.02,12.02v12.27c0,6.63,5.39,12.02,12.02,12.02h23.04C257.145,362.96,262.535,357.57,262.535,350.94z
				 M262.535,299.88v-12.27c0-6.63-5.39-12.02-12.02-12.02h-23.04c-6.63,0-12.02,5.39-12.02,12.02v12.27
				c0,6.63,5.39,12.02,12.02,12.02h23.04C257.145,311.9,262.535,306.51,262.535,299.88z M262.535,248.83v-12.27
				c0-6.63-5.39-12.02-12.02-12.02h-23.04c-6.63,0-12.02,5.39-12.02,12.02v12.27c0,6.63,5.39,12.02,12.02,12.02h23.04
				C257.145,260.85,262.535,255.46,262.535,248.83z M262.535,197.77V185.5c0-6.63-5.39-12.02-12.02-12.02h-23.04
				c-6.63,0-12.02,5.39-12.02,12.02v12.27c0,6.63,5.39,12.02,12.02,12.02h23.04C257.145,209.79,262.535,204.4,262.535,197.77z
				 M209.515,60.02v-33h-114v33H209.515z M204.565,402v-12.28c0-6.62-5.39-12.02-12.02-12.02h-23.04c-6.63,0-12.02,5.4-12.02,12.02
				V402c0,6.62,5.39,12.02,12.02,12.02h23.04C199.175,414.02,204.565,408.62,204.565,402z M204.565,350.94v-12.27
				c0-6.63-5.39-12.02-12.02-12.02h-23.04c-6.63,0-12.02,5.39-12.02,12.02v12.27c0,6.63,5.39,12.02,12.02,12.02h23.04
				C199.175,362.96,204.565,357.57,204.565,350.94z M204.565,299.88v-12.27c0-6.63-5.39-12.02-12.02-12.02h-23.04
				c-6.63,0-12.02,5.39-12.02,12.02v12.27c0,6.63,5.39,12.02,12.02,12.02h23.04C199.175,311.9,204.565,306.51,204.565,299.88z
				 M204.565,248.83v-12.27c0-6.63-5.39-12.02-12.02-12.02h-23.04c-6.63,0-12.02,5.39-12.02,12.02v12.27
				c0,6.63,5.39,12.02,12.02,12.02h23.04C199.175,260.85,204.565,255.46,204.565,248.83z M204.565,197.77V185.5
				c0-6.63-5.39-12.02-12.02-12.02h-23.04c-6.63,0-12.02,5.39-12.02,12.02v12.27c0,6.63,5.39,12.02,12.02,12.02h23.04
				C199.175,209.79,204.565,204.4,204.565,197.77z M146.595,402v-12.28c0-6.62-5.39-12.02-12.02-12.02h-23.04
				c-6.63,0-12.02,5.4-12.02,12.02V402c0,6.62,5.39,12.02,12.02,12.02h23.04C141.205,414.02,146.595,408.62,146.595,402z
				 M146.595,350.94v-12.27c0-6.63-5.39-12.02-12.02-12.02h-23.04c-6.63,0-12.02,5.39-12.02,12.02v12.27
				c0,6.63,5.39,12.02,12.02,12.02h23.04C141.205,362.96,146.595,357.57,146.595,350.94z M146.595,299.88v-12.27
				c0-6.63-5.39-12.02-12.02-12.02h-23.04c-6.63,0-12.02,5.39-12.02,12.02v12.27c0,6.63,5.39,12.02,12.02,12.02h23.04
				C141.205,311.9,146.595,306.51,146.595,299.88z M146.595,248.83v-12.27c0-6.63-5.39-12.02-12.02-12.02h-23.04
				c-6.63,0-12.02,5.39-12.02,12.02v12.27c0,6.63,5.39,12.02,12.02,12.02h23.04C141.205,260.85,146.595,255.46,146.595,248.83z
				 M146.595,197.77V185.5c0-6.63-5.39-12.02-12.02-12.02h-23.04c-6.63,0-12.02,5.39-12.02,12.02v12.27
				c0,6.63,5.39,12.02,12.02,12.02h23.04C141.205,209.79,146.595,204.4,146.595,197.77z"/>
			<path d="M320.515,338.67V402c0,6.62-5.4,12.02-12.03,12.02h-23.04c-6.63,0-12.02-5.4-12.02-12.02v-63.33
				c0-6.63,5.39-12.02,12.02-12.02h23.04C315.115,326.65,320.515,332.04,320.515,338.67z M311.515,402v-63.33
				c0-1.67-1.36-3.02-3.03-3.02h-23.04c-1.66,0-3.02,1.35-3.02,3.02V402c0,1.66,1.36,3.02,3.02,3.02h23.04
				C310.155,405.02,311.515,403.66,311.515,402z"/>
			<path d="M320.515,287.61v12.27c0,6.63-5.4,12.02-12.03,12.02h-23.04c-6.63,0-12.02-5.39-12.02-12.02v-12.27
				c0-6.63,5.39-12.02,12.02-12.02h23.04C315.115,275.59,320.515,280.98,320.515,287.61z M311.515,299.88v-12.27
				c0-1.66-1.36-3.02-3.03-3.02h-23.04c-1.66,0-3.02,1.36-3.02,3.02v12.27c0,1.67,1.36,3.02,3.02,3.02h23.04
				C310.155,302.9,311.515,301.55,311.515,299.88z"/>
			<path d="M320.515,236.56v12.27c0,6.63-5.4,12.02-12.03,12.02h-23.04c-6.63,0-12.02-5.39-12.02-12.02v-12.27
				c0-6.63,5.39-12.02,12.02-12.02h23.04C315.115,224.54,320.515,229.93,320.515,236.56z M311.515,248.83v-12.27
				c0-1.67-1.36-3.02-3.03-3.02h-23.04c-1.66,0-3.02,1.35-3.02,3.02v12.27c0,1.66,1.36,3.02,3.02,3.02h23.04
				C310.155,251.85,311.515,250.49,311.515,248.83z"/>
			<path d="M320.515,185.5v12.27c0,6.63-5.4,12.02-12.03,12.02h-23.04c-6.63,0-12.02-5.39-12.02-12.02V185.5
				c0-6.63,5.39-12.02,12.02-12.02h23.04C315.115,173.48,320.515,178.87,320.515,185.5z M311.515,197.77V185.5
				c0-1.67-1.36-3.02-3.03-3.02h-23.04c-1.66,0-3.02,1.35-3.02,3.02v12.27c0,1.67,1.36,3.02,3.02,3.02h23.04
				C310.155,200.79,311.515,199.44,311.515,197.77z"/>
			<path d="M320.515,91.16v48.71c0,8.9-7.25,16.15-16.15,16.15h-188.71c-8.9,0-16.14-7.25-16.14-16.15V91.16
				c0-8.9,7.24-16.14,16.14-16.14h188.71C313.265,75.02,320.515,82.26,320.515,91.16z M311.515,139.87V91.16
				c0-3.94-3.21-7.14-7.15-7.14h-188.71c-3.94,0-7.14,3.2-7.14,7.14v48.71c0,3.94,3.2,7.15,7.14,7.15h188.71
				C308.305,147.02,311.515,143.81,311.515,139.87z"/>
			<path style="fill:#6BCE95;" d="M311.515,338.67V402c0,1.66-1.36,3.02-3.03,3.02h-23.04c-1.66,0-3.02-1.36-3.02-3.02v-63.33
				c0-1.67,1.36-3.02,3.02-3.02h23.04C310.155,335.65,311.515,337,311.515,338.67z"/>
			<path style="fill:#6BCE95;" d="M311.515,287.61v12.27c0,1.67-1.36,3.02-3.03,3.02h-23.04c-1.66,0-3.02-1.35-3.02-3.02v-12.27
				c0-1.66,1.36-3.02,3.02-3.02h23.04C310.155,284.59,311.515,285.95,311.515,287.61z"/>
			<path style="fill:#6BCE95;" d="M311.515,236.56v12.27c0,1.66-1.36,3.02-3.03,3.02h-23.04c-1.66,0-3.02-1.36-3.02-3.02v-12.27
				c0-1.67,1.36-3.02,3.02-3.02h23.04C310.155,233.54,311.515,234.89,311.515,236.56z"/>
			<path style="fill:#6BCE95;" d="M311.515,185.5v12.27c0,1.67-1.36,3.02-3.03,3.02h-23.04c-1.66,0-3.02-1.35-3.02-3.02V185.5
				c0-1.67,1.36-3.02,3.02-3.02h23.04C310.155,182.48,311.515,183.83,311.515,185.5z"/>
			<path style="fill:#FFCC73;" d="M311.515,91.16v48.71c0,3.94-3.21,7.15-7.15,7.15h-188.71c-3.94,0-7.14-3.21-7.14-7.15V91.16
				c0-3.94,3.2-7.14,7.14-7.14h188.71C308.305,84.02,311.515,87.22,311.515,91.16z"/>
			<path d="M262.535,389.72V402c0,6.62-5.39,12.02-12.02,12.02h-23.04c-6.63,0-12.02-5.4-12.02-12.02v-12.28
				c0-6.62,5.39-12.02,12.02-12.02h23.04C257.145,377.7,262.535,383.1,262.535,389.72z M253.535,402v-12.28
				c0-1.66-1.35-3.02-3.02-3.02h-23.04c-1.67,0-3.02,1.36-3.02,3.02V402c0,1.66,1.35,3.02,3.02,3.02h23.04
				C252.185,405.02,253.535,403.66,253.535,402z"/>
			<path d="M262.535,338.67v12.27c0,6.63-5.39,12.02-12.02,12.02h-23.04c-6.63,0-12.02-5.39-12.02-12.02v-12.27
				c0-6.63,5.39-12.02,12.02-12.02h23.04C257.145,326.65,262.535,332.04,262.535,338.67z M253.535,350.94v-12.27
				c0-1.67-1.35-3.02-3.02-3.02h-23.04c-1.67,0-3.02,1.35-3.02,3.02v12.27c0,1.66,1.35,3.02,3.02,3.02h23.04
				C252.185,353.96,253.535,352.6,253.535,350.94z"/>
			<path d="M262.535,287.61v12.27c0,6.63-5.39,12.02-12.02,12.02h-23.04c-6.63,0-12.02-5.39-12.02-12.02v-12.27
				c0-6.63,5.39-12.02,12.02-12.02h23.04C257.145,275.59,262.535,280.98,262.535,287.61z M253.535,299.88v-12.27
				c0-1.66-1.35-3.02-3.02-3.02h-23.04c-1.67,0-3.02,1.36-3.02,3.02v12.27c0,1.67,1.35,3.02,3.02,3.02h23.04
				C252.185,302.9,253.535,301.55,253.535,299.88z"/>
			<path d="M262.535,236.56v12.27c0,6.63-5.39,12.02-12.02,12.02h-23.04c-6.63,0-12.02-5.39-12.02-12.02v-12.27
				c0-6.63,5.39-12.02,12.02-12.02h23.04C257.145,224.54,262.535,229.93,262.535,236.56z M253.535,248.83v-12.27
				c0-1.67-1.35-3.02-3.02-3.02h-23.04c-1.67,0-3.02,1.35-3.02,3.02v12.27c0,1.66,1.35,3.02,3.02,3.02h23.04
				C252.185,251.85,253.535,250.49,253.535,248.83z"/>
			<path d="M262.535,185.5v12.27c0,6.63-5.39,12.02-12.02,12.02h-23.04c-6.63,0-12.02-5.39-12.02-12.02V185.5
				c0-6.63,5.39-12.02,12.02-12.02h23.04C257.145,173.48,262.535,178.87,262.535,185.5z M253.535,197.77V185.5
				c0-1.67-1.35-3.02-3.02-3.02h-23.04c-1.67,0-3.02,1.35-3.02,3.02v12.27c0,1.67,1.35,3.02,3.02,3.02h23.04
				C252.185,200.79,253.535,199.44,253.535,197.77z"/>
			<path style="fill:#6BCE95;" d="M253.535,389.72V402c0,1.66-1.35,3.02-3.02,3.02h-23.04c-1.67,0-3.02-1.36-3.02-3.02v-12.28
				c0-1.66,1.35-3.02,3.02-3.02h23.04C252.185,386.7,253.535,388.06,253.535,389.72z"/>
			<path style="fill:#6BCE95;" d="M253.535,338.67v12.27c0,1.66-1.35,3.02-3.02,3.02h-23.04c-1.67,0-3.02-1.36-3.02-3.02v-12.27
				c0-1.67,1.35-3.02,3.02-3.02h23.04C252.185,335.65,253.535,337,253.535,338.67z"/>
			<path style="fill:#6BCE95;" d="M253.535,287.61v12.27c0,1.67-1.35,3.02-3.02,3.02h-23.04c-1.67,0-3.02-1.35-3.02-3.02v-12.27
				c0-1.66,1.35-3.02,3.02-3.02h23.04C252.185,284.59,253.535,285.95,253.535,287.61z"/>
			<path style="fill:#6BCE95;" d="M253.535,236.56v12.27c0,1.66-1.35,3.02-3.02,3.02h-23.04c-1.67,0-3.02-1.36-3.02-3.02v-12.27
				c0-1.67,1.35-3.02,3.02-3.02h23.04C252.185,233.54,253.535,234.89,253.535,236.56z"/>
			<path style="fill:#6BCE95;" d="M253.535,185.5v12.27c0,1.67-1.35,3.02-3.02,3.02h-23.04c-1.67,0-3.02-1.35-3.02-3.02V185.5
				c0-1.67,1.35-3.02,3.02-3.02h23.04C252.185,182.48,253.535,183.83,253.535,185.5z"/>
			<path d="M209.515,27.02v33h-114v-33H209.515z M200.515,51.02v-15h-16v15H200.515z M175.515,51.02v-15h-18.5v15H175.515z
				 M148.015,51.02v-15h-18.5v15H148.015z M120.515,51.02v-15h-16v15H120.515z"/>
			<path d="M204.565,389.72V402c0,6.62-5.39,12.02-12.02,12.02h-23.04c-6.63,0-12.02-5.4-12.02-12.02v-12.28
				c0-6.62,5.39-12.02,12.02-12.02h23.04C199.175,377.7,204.565,383.1,204.565,389.72z M195.565,402v-12.28
				c0-1.66-1.36-3.02-3.02-3.02h-23.04c-1.67,0-3.02,1.36-3.02,3.02V402c0,1.66,1.35,3.02,3.02,3.02h23.04
				C194.205,405.02,195.565,403.66,195.565,402z"/>
			<path d="M204.565,338.67v12.27c0,6.63-5.39,12.02-12.02,12.02h-23.04c-6.63,0-12.02-5.39-12.02-12.02v-12.27
				c0-6.63,5.39-12.02,12.02-12.02h23.04C199.175,326.65,204.565,332.04,204.565,338.67z M195.565,350.94v-12.27
				c0-1.67-1.36-3.02-3.02-3.02h-23.04c-1.67,0-3.02,1.35-3.02,3.02v12.27c0,1.66,1.35,3.02,3.02,3.02h23.04
				C194.205,353.96,195.565,352.6,195.565,350.94z"/>
			<path d="M204.565,287.61v12.27c0,6.63-5.39,12.02-12.02,12.02h-23.04c-6.63,0-12.02-5.39-12.02-12.02v-12.27
				c0-6.63,5.39-12.02,12.02-12.02h23.04C199.175,275.59,204.565,280.98,204.565,287.61z M195.565,299.88v-12.27
				c0-1.66-1.36-3.02-3.02-3.02h-23.04c-1.67,0-3.02,1.36-3.02,3.02v12.27c0,1.67,1.35,3.02,3.02,3.02h23.04
				C194.205,302.9,195.565,301.55,195.565,299.88z"/>
			<path d="M204.565,236.56v12.27c0,6.63-5.39,12.02-12.02,12.02h-23.04c-6.63,0-12.02-5.39-12.02-12.02v-12.27
				c0-6.63,5.39-12.02,12.02-12.02h23.04C199.175,224.54,204.565,229.93,204.565,236.56z M195.565,248.83v-12.27
				c0-1.67-1.36-3.02-3.02-3.02h-23.04c-1.67,0-3.02,1.35-3.02,3.02v12.27c0,1.66,1.35,3.02,3.02,3.02h23.04
				C194.205,251.85,195.565,250.49,195.565,248.83z"/>
			<path d="M204.565,185.5v12.27c0,6.63-5.39,12.02-12.02,12.02h-23.04c-6.63,0-12.02-5.39-12.02-12.02V185.5
				c0-6.63,5.39-12.02,12.02-12.02h23.04C199.175,173.48,204.565,178.87,204.565,185.5z M195.565,197.77V185.5
				c0-1.67-1.36-3.02-3.02-3.02h-23.04c-1.67,0-3.02,1.35-3.02,3.02v12.27c0,1.67,1.35,3.02,3.02,3.02h23.04
				C194.205,200.79,195.565,199.44,195.565,197.77z"/>
			<rect x="184.515" y="36.02" style="fill:#6A7075;" width="16" height="15"/>
			<path style="fill:#6BCE95;" d="M195.565,389.72V402c0,1.66-1.36,3.02-3.02,3.02h-23.04c-1.67,0-3.02-1.36-3.02-3.02v-12.28
				c0-1.66,1.35-3.02,3.02-3.02h23.04C194.205,386.7,195.565,388.06,195.565,389.72z"/>
			<path style="fill:#6BCE95;" d="M195.565,338.67v12.27c0,1.66-1.36,3.02-3.02,3.02h-23.04c-1.67,0-3.02-1.36-3.02-3.02v-12.27
				c0-1.67,1.35-3.02,3.02-3.02h23.04C194.205,335.65,195.565,337,195.565,338.67z"/>
			<path style="fill:#6BCE95;" d="M195.565,287.61v12.27c0,1.67-1.36,3.02-3.02,3.02h-23.04c-1.67,0-3.02-1.35-3.02-3.02v-12.27
				c0-1.66,1.35-3.02,3.02-3.02h23.04C194.205,284.59,195.565,285.95,195.565,287.61z"/>
			<path style="fill:#6BCE95;" d="M195.565,236.56v12.27c0,1.66-1.36,3.02-3.02,3.02h-23.04c-1.67,0-3.02-1.36-3.02-3.02v-12.27
				c0-1.67,1.35-3.02,3.02-3.02h23.04C194.205,233.54,195.565,234.89,195.565,236.56z"/>
			<path style="fill:#6BCE95;" d="M195.565,185.5v12.27c0,1.67-1.36,3.02-3.02,3.02h-23.04c-1.67,0-3.02-1.35-3.02-3.02V185.5
				c0-1.67,1.35-3.02,3.02-3.02h23.04C194.205,182.48,195.565,183.83,195.565,185.5z"/>
			<rect x="157.015" y="36.02" style="fill:#6A7075;" width="18.5" height="15"/>
			<rect x="129.515" y="36.02" style="fill:#6A7075;" width="18.5" height="15"/>
			<path d="M146.595,389.72V402c0,6.62-5.39,12.02-12.02,12.02h-23.04c-6.63,0-12.02-5.4-12.02-12.02v-12.28
				c0-6.62,5.39-12.02,12.02-12.02h23.04C141.205,377.7,146.595,383.1,146.595,389.72z M137.595,402v-12.28
				c0-1.66-1.36-3.02-3.02-3.02h-23.04c-1.67,0-3.02,1.36-3.02,3.02V402c0,1.66,1.35,3.02,3.02,3.02h23.04
				C136.235,405.02,137.595,403.66,137.595,402z"/>
			<path d="M146.595,338.67v12.27c0,6.63-5.39,12.02-12.02,12.02h-23.04c-6.63,0-12.02-5.39-12.02-12.02v-12.27
				c0-6.63,5.39-12.02,12.02-12.02h23.04C141.205,326.65,146.595,332.04,146.595,338.67z M137.595,350.94v-12.27
				c0-1.67-1.36-3.02-3.02-3.02h-23.04c-1.67,0-3.02,1.35-3.02,3.02v12.27c0,1.66,1.35,3.02,3.02,3.02h23.04
				C136.235,353.96,137.595,352.6,137.595,350.94z"/>
			<path d="M146.595,287.61v12.27c0,6.63-5.39,12.02-12.02,12.02h-23.04c-6.63,0-12.02-5.39-12.02-12.02v-12.27
				c0-6.63,5.39-12.02,12.02-12.02h23.04C141.205,275.59,146.595,280.98,146.595,287.61z M137.595,299.88v-12.27
				c0-1.66-1.36-3.02-3.02-3.02h-23.04c-1.67,0-3.02,1.36-3.02,3.02v12.27c0,1.67,1.35,3.02,3.02,3.02h23.04
				C136.235,302.9,137.595,301.55,137.595,299.88z"/>
			<path d="M146.595,236.56v12.27c0,6.63-5.39,12.02-12.02,12.02h-23.04c-6.63,0-12.02-5.39-12.02-12.02v-12.27
				c0-6.63,5.39-12.02,12.02-12.02h23.04C141.205,224.54,146.595,229.93,146.595,236.56z M137.595,248.83v-12.27
				c0-1.67-1.36-3.02-3.02-3.02h-23.04c-1.67,0-3.02,1.35-3.02,3.02v12.27c0,1.66,1.35,3.02,3.02,3.02h23.04
				C136.235,251.85,137.595,250.49,137.595,248.83z"/>
			<path d="M146.595,185.5v12.27c0,6.63-5.39,12.02-12.02,12.02h-23.04c-6.63,0-12.02-5.39-12.02-12.02V185.5
				c0-6.63,5.39-12.02,12.02-12.02h23.04C141.205,173.48,146.595,178.87,146.595,185.5z M137.595,197.77V185.5
				c0-1.67-1.36-3.02-3.02-3.02h-23.04c-1.67,0-3.02,1.35-3.02,3.02v12.27c0,1.67,1.35,3.02,3.02,3.02h23.04
				C136.235,200.79,137.595,199.44,137.595,197.77z"/>
			<path style="fill:#6BCE95;" d="M137.595,389.72V402c0,1.66-1.36,3.02-3.02,3.02h-23.04c-1.67,0-3.02-1.36-3.02-3.02v-12.28
				c0-1.66,1.35-3.02,3.02-3.02h23.04C136.235,386.7,137.595,388.06,137.595,389.72z"/>
			<path style="fill:#6BCE95;" d="M137.595,338.67v12.27c0,1.66-1.36,3.02-3.02,3.02h-23.04c-1.67,0-3.02-1.36-3.02-3.02v-12.27
				c0-1.67,1.35-3.02,3.02-3.02h23.04C136.235,335.65,137.595,337,137.595,338.67z"/>
			<path style="fill:#6BCE95;" d="M137.595,287.61v12.27c0,1.67-1.36,3.02-3.02,3.02h-23.04c-1.67,0-3.02-1.35-3.02-3.02v-12.27
				c0-1.66,1.35-3.02,3.02-3.02h23.04C136.235,284.59,137.595,285.95,137.595,287.61z"/>
			<path style="fill:#6BCE95;" d="M137.595,236.56v12.27c0,1.66-1.36,3.02-3.02,3.02h-23.04c-1.67,0-3.02-1.36-3.02-3.02v-12.27
				c0-1.67,1.35-3.02,3.02-3.02h23.04C136.235,233.54,137.595,234.89,137.595,236.56z"/>
			<path style="fill:#6BCE95;" d="M137.595,185.5v12.27c0,1.67-1.36,3.02-3.02,3.02h-23.04c-1.67,0-3.02-1.35-3.02-3.02V185.5
				c0-1.67,1.35-3.02,3.02-3.02h23.04C136.235,182.48,137.595,183.83,137.595,185.5z"/>
			<rect x="104.515" y="36.02" style="fill:#6A7075;" width="16" height="15"/>
		</g>
	</g>
</g>
</svg>