<?xml version="1.0" encoding="iso-8859-1"?>
<!-- Uploaded to: SVG Repo, www.svgrepo.com, Generator: SVG Repo Mixer Tools -->
<svg height="800px" width="800px" version="1.1" id="Capa_1" xmlns="http://www.w3.org/2000/svg" xmlns:xlink="http://www.w3.org/1999/xlink" 
	 viewBox="0 0 443.37 443.37" xml:space="preserve">
<g id="XMLID_16_">
	<g>
		<polygon style="fill:#F97946;" points="434.37,21.73 434.37,48.72 431.75,48.72 419.56,36.54 		"/>
		<polygon style="fill:#F97946;" points="434.37,48.72 434.37,428 379.4,373.04 379.4,154.43 154.43,379.4 373.04,379.4 428,434.37 
			21.73,434.37 37.36,418.74 49.55,430.92 55.91,424.56 43.72,412.37 59.47,396.63 71.65,408.82 78.02,402.45 65.83,390.26 
			81.58,374.52 93.76,386.71 100.13,380.34 87.94,368.16 103.68,352.41 115.87,364.6 122.24,358.24 110.05,346.05 125.79,330.3 
			137.98,342.49 144.34,336.13 132.16,323.94 147.9,308.2 160.09,320.38 166.45,314.02 154.26,301.83 170.01,286.09 182.19,298.28 
			188.56,291.91 176.37,279.72 192.12,263.98 204.3,276.17 210.67,269.8 198.48,257.62 214.22,241.87 226.41,254.06 232.77,247.7 
			220.59,235.51 236.33,219.77 248.52,231.95 254.88,225.59 242.7,213.4 258.44,197.66 270.63,209.84 276.99,203.48 264.8,191.29 
			280.55,175.55 292.73,187.74 299.1,181.37 286.91,169.19 302.66,153.44 314.84,165.63 321.21,159.26 309.02,147.08 324.76,131.33 
			336.95,143.52 343.31,137.16 331.13,124.97 346.87,109.23 359.06,121.41 365.42,115.05 353.24,102.86 368.98,87.12 381.17,99.3 
			387.53,92.94 375.34,80.75 391.09,65.01 403.27,77.2 409.64,70.83 397.45,58.65 413.2,42.9 425.38,55.09 431.75,48.72 		"/>
		<path d="M443.37,0v443.37H0L443.37,0z M434.37,428V48.72V21.73l-14.81,14.81l12.19,12.18l-6.37,6.37L413.2,42.9l-15.75,15.75
			l12.19,12.18l-6.37,6.37l-12.18-12.19l-15.75,15.74l12.19,12.19l-6.36,6.36l-12.19-12.18l-15.74,15.74l12.18,12.19l-6.36,6.36
			l-12.19-12.18l-15.74,15.74l12.18,12.19l-6.36,6.36l-12.19-12.19l-15.74,15.75l12.19,12.18l-6.37,6.37l-12.18-12.19l-15.75,15.75
			l12.19,12.18l-6.37,6.37l-12.18-12.19l-15.75,15.74l12.19,12.19l-6.36,6.36l-12.19-12.18L242.7,213.4l12.18,12.19l-6.36,6.36
			l-12.19-12.18l-15.74,15.74l12.18,12.19l-6.36,6.36l-12.19-12.19l-15.74,15.75l12.19,12.18l-6.37,6.37l-12.18-12.19l-15.75,15.74
			l12.19,12.19l-6.37,6.37l-12.18-12.19l-15.75,15.74l12.19,12.19l-6.36,6.36L147.9,308.2l-15.74,15.74l12.18,12.19l-6.36,6.36
			l-12.19-12.19l-15.74,15.75l12.19,12.19l-6.37,6.36l-12.19-12.19l-15.74,15.75l12.19,12.18l-6.37,6.37l-12.18-12.19l-15.75,15.74
			l12.19,12.19l-6.37,6.37l-12.18-12.19l-15.75,15.74l12.19,12.19l-6.36,6.36l-12.19-12.18l-15.63,15.63H428l-54.96-54.97H154.43
			L379.4,154.43v218.61L434.37,428z M370.4,370.4V176.16L176.16,370.4H370.4z"/>
	</g>
</g>
</svg>